<svg width="485" height="201" viewBox="0 0 485 201" fill="none" xmlns="http://www.w3.org/2000/svg">
<rect x="0.386597" y="0.624756" width="483.635" height="200" rx="5" fill="#1E4681"/>
<path d="M33.5092 46.1368C32.378 46.1368 31.3363 45.9415 30.3842 45.5509C29.4401 45.1603 28.6914 44.5865 28.1381 43.8297C27.5847 43.0647 27.3202 42.1289 27.3446 41.0221L27.369 40.9489H29.6639C29.6639 41.5673 29.8145 42.1289 30.1156 42.6334C30.4248 43.1298 30.8684 43.5245 31.4462 43.8175C32.0321 44.1105 32.736 44.257 33.558 44.257C34.7461 44.257 35.7268 43.9559 36.4999 43.3536C37.273 42.7433 37.6595 41.8888 37.6595 40.7902C37.6595 39.8136 37.3259 39.069 36.6586 38.5563C35.9913 38.0354 35.0066 37.775 33.7045 37.775H31.7025V35.8707H33.7045C34.9577 35.8707 35.8855 35.6062 36.4877 35.0773C37.0899 34.5483 37.391 33.8281 37.391 32.9166C37.391 31.9726 37.0573 31.2076 36.39 30.6217C35.7227 30.0358 34.7217 29.7428 33.3871 29.7428C32.5326 29.7428 31.8124 29.8689 31.2264 30.1212C30.6405 30.3654 30.1644 30.6746 29.7982 31.049L29.3344 33.5514H27.6498V30.402C28.1543 29.7509 28.9234 29.165 29.9569 28.6442C30.9986 28.1152 32.2193 27.8507 33.619 27.8507C35.5152 27.8507 37.0166 28.278 38.1234 29.1324C39.2383 29.9788 39.7958 31.1303 39.7958 32.587C39.7958 33.5717 39.5394 34.4181 39.0267 35.1261C38.514 35.826 37.8101 36.3712 36.9149 36.7618C37.9322 37.1036 38.7094 37.6285 39.2465 38.3365C39.7917 39.0446 40.0643 39.9113 40.0643 40.9366C40.0643 42.019 39.7876 42.9508 39.2343 43.7321C38.689 44.5052 37.924 45.0992 36.9393 45.5143C35.9546 45.9293 34.8112 46.1368 33.5092 46.1368ZM41.871 50.9586V49.4083L43.7386 49.0665V34.5646L41.7489 34.2228V32.6725H45.8016L46.0214 34.2838C46.4608 33.6816 46.9939 33.2218 47.6205 32.9044C48.2552 32.587 48.9877 32.4283 49.8177 32.4283C50.9082 32.4283 51.84 32.7254 52.6132 33.3195C53.3863 33.9054 53.9763 34.7314 54.3832 35.7975C54.7901 36.8554 54.9935 38.0965 54.9935 39.5206V39.777C54.9935 41.0465 54.786 42.1573 54.371 43.1095C53.9641 44.0616 53.3781 44.8063 52.6132 45.3434C51.8482 45.8724 50.9286 46.1368 49.8544 46.1368C49.0406 46.1368 48.3244 46.0026 47.7059 45.734C47.0956 45.4573 46.5747 45.0504 46.1434 44.5133V49.0665L48.243 49.4083V50.9586H41.871ZM49.1097 44.257C50.2491 44.257 51.1117 43.8419 51.6976 43.0118C52.2836 42.1818 52.5765 41.1035 52.5765 39.777V39.5206C52.5765 38.5115 52.4463 37.6245 52.1859 36.8595C51.9255 36.0864 51.5349 35.4801 51.014 35.0406C50.5013 34.6012 49.8584 34.3815 49.0853 34.3815C48.4017 34.3815 47.8158 34.5361 47.3275 34.8453C46.8392 35.1546 46.4445 35.5778 46.1434 36.1149V42.548C46.4445 43.0932 46.8352 43.5164 47.3153 43.8175C47.8036 44.1105 48.4017 44.257 49.1097 44.257ZM57.6547 45.8805V44.3424L59.6444 44.0006V34.5646L57.6547 34.2228V32.6725H62.037H64.0267V34.2228L62.037 34.5646V42.0231L62.1102 42.0475L67.933 32.6725H70.3378H72.3275V34.2228L70.3378 34.5646V44.0006L72.3275 44.3424V45.8805H65.9432V44.3424L67.933 44.0006V36.5299L67.8597 36.5055L62.037 45.8805H57.6547ZM77.4911 45.8805V44.3424L79.4808 44.0006V34.5402H76.6976L76.5145 36.6031H74.4637V32.6725H86.9637V36.6031H84.9008L84.7177 34.5402H81.8856V44.0006L83.8754 44.3424V45.8805H77.4911ZM93.934 46.1368C92.7133 46.1368 91.6512 45.8601 90.7479 45.3068C89.8446 44.7452 89.1447 43.9681 88.6483 42.9752C88.16 41.9824 87.9159 40.8349 87.9159 39.5328V38.9957C87.9159 37.7425 88.1722 36.6235 88.6849 35.6388C89.2058 34.646 89.8934 33.8647 90.7479 33.295C91.6106 32.7172 92.5505 32.4283 93.5677 32.4283C94.7559 32.4283 95.7487 32.6725 96.5463 33.1608C97.3519 33.649 97.9582 34.3367 98.3651 35.2238C98.772 36.1027 98.9755 37.1403 98.9755 38.3365V39.838H90.4061L90.3695 39.899C90.3858 40.7454 90.5323 41.4982 90.809 42.1573C91.0938 42.8084 91.5007 43.3211 92.0297 43.6954C92.5586 44.0698 93.1934 44.257 93.934 44.257C94.7478 44.257 95.4598 44.143 96.0702 43.9152C96.6887 43.6792 97.2217 43.3577 97.6693 42.9508L98.6093 44.5133C98.1372 44.969 97.5106 45.3556 96.7294 45.673C95.9563 45.9822 95.0245 46.1368 93.934 46.1368ZM90.4794 37.9581H96.5707V37.6407C96.5707 37.006 96.4567 36.4404 96.2289 35.944C96.0092 35.4394 95.6755 35.0447 95.2279 34.7599C94.7885 34.4669 94.2351 34.3204 93.5677 34.3204C93.0306 34.3204 92.5424 34.4791 92.1029 34.7965C91.6635 35.1058 91.3013 35.5289 91.0165 36.066C90.7316 36.6031 90.5445 37.2135 90.455 37.8971L90.4794 37.9581ZM100.794 45.8805L100.831 43.8297L101.331 43.8175C101.909 43.8175 102.365 43.6385 102.699 43.2804C103.032 42.9142 103.272 42.3282 103.419 41.5226C103.565 40.7088 103.639 39.6386 103.639 38.3121V34.5646L101.649 34.2228V32.6725H112.928H114.918V34.2228L112.928 34.5646V44.0006L114.918 44.3424V45.8805H108.534V44.3424L110.523 44.0006V34.5768H106.043V38.3121C106.043 40.9163 105.697 42.8287 105.006 44.0494C104.322 45.2701 103.146 45.8805 101.478 45.8805H100.794ZM124.867 37.2135C126.429 37.2135 127.646 37.6123 128.516 38.4098C129.387 39.1992 129.823 40.2286 129.823 41.4982C129.823 42.7758 129.383 43.8256 128.504 44.6476C127.634 45.4695 126.421 45.8805 124.867 45.8805H117.201V44.3424L119.19 44.0006V34.5646L117.201 34.2228V32.6725H123.585V34.2228L121.595 34.5646V37.2135H124.867ZM124.867 44.0006C125.737 44.0006 126.376 43.7727 126.783 43.317C127.198 42.8531 127.406 42.2753 127.406 41.5836C127.406 40.9163 127.198 40.3344 126.783 39.838C126.368 39.3416 125.729 39.0934 124.867 39.0934H121.595V44.0006H124.867ZM138.075 49.7623L137.843 44.0006H138.88C139.222 43.61 139.519 43.2234 139.771 42.8409C140.032 42.4503 140.252 42.0231 140.431 41.5592C140.618 41.0872 140.768 40.5379 140.882 39.9113C141.004 39.2765 141.094 38.5197 141.151 37.6407L141.273 34.5524L139.356 34.2228V32.6725H149.976H151.966V34.2228L149.976 34.5646V44.0006H151.734L151.49 49.7623H149.329V45.8805H140.235V49.7623H138.075ZM141.651 44.0006H147.572V34.8087H143.665L143.556 37.6407C143.466 39.1056 143.254 40.3548 142.921 41.3883C142.595 42.4218 142.172 43.2926 141.651 44.0006ZM153.797 45.8805L153.834 43.8297L154.334 43.8175C154.912 43.8175 155.368 43.6385 155.702 43.2804C156.035 42.9142 156.275 42.3282 156.422 41.5226C156.568 40.7088 156.641 39.6386 156.641 38.3121V34.5646L154.652 34.2228V32.6725H165.931H167.921V34.2228L165.931 34.5646V44.0006L167.921 44.3424V45.8805H161.536V44.3424L163.526 44.0006V34.5768H159.046V38.3121C159.046 40.9163 158.7 42.8287 158.009 44.0494C157.325 45.2701 156.149 45.8805 154.481 45.8805H153.797ZM169.813 45.8805V44.3424L171.546 44.0861L173.805 40.3995C172.966 40.0984 172.319 39.6224 171.864 38.9713C171.416 38.3203 171.192 37.5675 171.192 36.713C171.192 35.9155 171.396 35.2156 171.803 34.6134C172.21 34.0031 172.791 33.527 173.548 33.1852C174.313 32.8434 175.217 32.6725 176.258 32.6725H183.827V34.2228L181.837 34.5646V44.0006L183.827 44.3424V45.8805H177.442V44.3424L179.432 44.0006V40.7535H176.173L173.048 45.8805H169.813ZM176.014 38.8615H179.432V34.5402H176.258C175.387 34.5402 174.728 34.7599 174.281 35.1993C173.833 35.6307 173.609 36.1434 173.609 36.7374C173.609 37.3234 173.809 37.8239 174.207 38.2389C174.614 38.6539 175.217 38.8615 176.014 38.8615ZM192.323 45.8805V44.3424L194.312 44.0006V34.5646L192.323 34.2228V32.6725H194.312H197.413L201.71 42.7311H201.783L206.092 32.6725H209.107H211.097V34.2228L209.107 34.5646V44.0006L211.097 44.3424V45.8805H204.713V44.3424L206.703 44.0006V36.713L206.629 36.6886L202.577 45.8805H200.916L196.79 36.4933L196.717 36.5177V44.0006L198.707 44.3424V45.8805H192.323ZM219.105 46.1368C217.884 46.1368 216.822 45.8601 215.919 45.3068C215.016 44.7452 214.316 43.9681 213.819 42.9752C213.331 41.9824 213.087 40.8349 213.087 39.5328V38.9957C213.087 37.7425 213.343 36.6235 213.856 35.6388C214.377 34.646 215.064 33.8647 215.919 33.295C216.781 32.7172 217.721 32.4283 218.739 32.4283C219.927 32.4283 220.92 32.6725 221.717 33.1608C222.523 33.649 223.129 34.3367 223.536 35.2238C223.943 36.1027 224.146 37.1403 224.146 38.3365V39.838H215.577L215.54 39.899C215.557 40.7454 215.703 41.4982 215.98 42.1573C216.265 42.8084 216.672 43.3211 217.201 43.6954C217.73 44.0698 218.364 44.257 219.105 44.257C219.919 44.257 220.631 44.143 221.241 43.9152C221.86 43.6792 222.393 43.3577 222.84 42.9508L223.78 44.5133C223.308 44.969 222.682 45.3556 221.9 45.673C221.127 45.9822 220.195 46.1368 219.105 46.1368ZM215.65 37.9581H221.742V37.6407C221.742 37.006 221.628 36.4404 221.4 35.944C221.18 35.4394 220.846 35.0447 220.399 34.7599C219.959 34.4669 219.406 34.3204 218.739 34.3204C218.202 34.3204 217.713 34.4791 217.274 34.7965C216.834 35.1058 216.472 35.5289 216.187 36.066C215.903 36.6031 215.715 37.2135 215.626 37.8971L215.65 37.9581ZM226.307 45.8805V44.3424L228.297 44.0006V34.5646L226.307 34.2228V32.6725H232.691V34.2228L230.702 34.5646V38.3854H236.573V34.5646L234.583 34.2228V32.6725H236.573H238.99H240.98V34.2228L238.99 34.5646V44.0006L240.98 44.3424V45.8805H234.583V44.3424L236.573 44.0006V40.2653H230.702V44.0006L232.691 44.3424V45.8805H226.307ZM242.957 45.8805V44.3424L244.691 44.0861L246.949 40.3995C246.111 40.0984 245.464 39.6224 245.008 38.9713C244.561 38.3203 244.337 37.5675 244.337 36.713C244.337 35.9155 244.54 35.2156 244.947 34.6134C245.354 34.0031 245.936 33.527 246.693 33.1852C247.458 32.8434 248.361 32.6725 249.403 32.6725H256.971V34.2228L254.981 34.5646V44.0006L256.971 44.3424V45.8805H250.587V44.3424L252.577 44.0006V40.7535H249.317L246.192 45.8805H242.957ZM249.159 38.8615H252.577V34.5402H249.403C248.532 34.5402 247.873 34.7599 247.425 35.1993C246.978 35.6307 246.754 36.1434 246.754 36.7374C246.754 37.3234 246.953 37.8239 247.352 38.2389C247.759 38.6539 248.361 38.8615 249.159 38.8615ZM27.601 77.8805V76.3424L29.5907 76.0006V66.5646L27.601 66.2228V64.6725H33.9852V66.2228L31.9955 66.5646V70.3854H37.8671V66.5646L35.8773 66.2228V64.6725H37.8671H40.2841H42.2738V66.2228L40.2841 66.5646V76.0006L42.2738 76.3424V77.8805H35.8773V76.3424L37.8671 76.0006V72.2653H31.9955V76.0006L33.9852 76.3424V77.8805H27.601ZM50.3793 78.1368C49.1586 78.1368 48.0966 77.8601 47.1932 77.3068C46.2899 76.7452 45.59 75.9681 45.0936 74.9752C44.6053 73.9824 44.3612 72.8349 44.3612 71.5328V70.9957C44.3612 69.7425 44.6176 68.6235 45.1302 67.6388C45.6511 66.646 46.3387 65.8647 47.1932 65.295C48.0559 64.7172 48.9958 64.4283 50.0131 64.4283C51.2012 64.4283 52.1941 64.6725 52.9916 65.1608C53.7972 65.649 54.4035 66.3367 54.8104 67.2238C55.2173 68.1027 55.4208 69.1403 55.4208 70.3365V71.838H46.8514L46.8148 71.899C46.8311 72.7454 46.9776 73.4982 47.2543 74.1573C47.5391 74.8084 47.946 75.3211 48.475 75.6954C49.0039 76.0698 49.6387 76.257 50.3793 76.257C51.1931 76.257 51.9052 76.143 52.5155 75.9152C53.134 75.6792 53.667 75.3577 54.1146 74.9508L55.0546 76.5133C54.5826 76.969 53.9559 77.3556 53.1747 77.673C52.4016 77.9822 51.4698 78.1368 50.3793 78.1368ZM46.9247 69.9581H53.016V69.6407C53.016 69.006 52.9021 68.4404 52.6742 67.944C52.4545 67.4394 52.1208 67.0447 51.6732 66.7599C51.2338 66.4669 50.6804 66.3204 50.0131 66.3204C49.476 66.3204 48.9877 66.4791 48.5482 66.7965C48.1088 67.1058 47.7466 67.5289 47.4618 68.066C47.177 68.6031 46.9898 69.2135 46.9003 69.8971L46.9247 69.9581ZM63.807 77.8805V76.3424L65.7968 76.0006V66.5646L63.807 66.2228V64.6725H78.4799V66.2228L76.4901 66.5646V76.0006L78.4799 76.3424V77.8805H72.0956V76.3424L74.0853 76.0006V66.5768H68.2015V76.0006L70.1913 76.3424V77.8805H63.807ZM86.5365 78.1368C85.3158 78.1368 84.2619 77.852 83.3749 77.2823C82.496 76.7045 81.8164 75.9111 81.3363 74.902C80.8562 73.8847 80.6161 72.7251 80.6161 71.423V71.1544C80.6161 69.8523 80.8562 68.6967 81.3363 67.6876C81.8164 66.6704 82.496 65.8728 83.3749 65.295C84.2619 64.7172 85.3077 64.4283 86.5121 64.4283C87.7328 64.4283 88.7826 64.7172 89.6615 65.295C90.5485 65.8728 91.2321 66.6663 91.7123 67.6754C92.1924 68.6845 92.4325 69.8442 92.4325 71.1544V71.423C92.4325 72.7332 92.1924 73.8969 91.7123 74.9142C91.2321 75.9233 90.5526 76.7127 89.6737 77.2823C88.7948 77.852 87.7491 78.1368 86.5365 78.1368ZM86.5365 76.257C87.3015 76.257 87.9403 76.0494 88.453 75.6344C88.9738 75.2112 89.3645 74.6375 89.6249 73.9132C89.8934 73.1808 90.0277 72.3507 90.0277 71.423V71.1544C90.0277 70.2267 89.8934 69.4007 89.6249 68.6764C89.3645 67.944 88.9738 67.3702 88.453 66.9552C87.9322 66.532 87.2852 66.3204 86.5121 66.3204C85.7471 66.3204 85.1042 66.532 84.5834 66.9552C84.0625 67.3702 83.6719 67.944 83.4115 68.6764C83.1511 69.4007 83.0209 70.2267 83.0209 71.1544V71.423C83.0209 72.3507 83.1511 73.1808 83.4115 73.9132C83.6719 74.6375 84.0625 75.2112 84.5834 75.6344C85.1123 76.0494 85.7634 76.257 86.5365 76.257ZM97.413 77.8805V76.3424L99.4027 76.0006V66.5402H96.6195L96.4364 68.6031H94.3856V64.6725H106.886V68.6031H104.823L104.64 66.5402H101.807V76.0006L103.797 76.3424V77.8805H97.413ZM108.448 82.9586V81.4083L110.316 81.0665V66.5646L108.326 66.2228V64.6725H112.379L112.599 66.2838C113.038 65.6816 113.571 65.2218 114.198 64.9044C114.832 64.587 115.565 64.4283 116.395 64.4283C117.485 64.4283 118.417 64.7254 119.19 65.3195C119.963 65.9054 120.553 66.7314 120.96 67.7975C121.367 68.8554 121.571 70.0965 121.571 71.5206V71.777C121.571 73.0465 121.363 74.1573 120.948 75.1095C120.541 76.0616 119.955 76.8063 119.19 77.3434C118.425 77.8724 117.506 78.1368 116.432 78.1368C115.618 78.1368 114.902 78.0026 114.283 77.734C113.673 77.4573 113.152 77.0504 112.721 76.5133V81.0665L114.82 81.4083V82.9586H108.448ZM115.687 76.257C116.826 76.257 117.689 75.8419 118.275 75.0118C118.861 74.1818 119.154 73.1035 119.154 71.777V71.5206C119.154 70.5115 119.023 69.6245 118.763 68.8595C118.503 68.0864 118.112 67.4801 117.591 67.0406C117.078 66.6012 116.436 66.3815 115.662 66.3815C114.979 66.3815 114.393 66.5361 113.905 66.8453C113.416 67.1546 113.022 67.5778 112.721 68.1149V74.548C113.022 75.0932 113.412 75.5164 113.892 75.8175C114.381 76.1105 114.979 76.257 115.687 76.257ZM130.457 78.1368C129.237 78.1368 128.175 77.8601 127.271 77.3068C126.368 76.7452 125.668 75.9681 125.172 74.9752C124.683 73.9824 124.439 72.8349 124.439 71.5328V70.9957C124.439 69.7425 124.696 68.6235 125.208 67.6388C125.729 66.646 126.417 65.8647 127.271 65.295C128.134 64.7172 129.074 64.4283 130.091 64.4283C131.279 64.4283 132.272 64.6725 133.07 65.1608C133.875 65.649 134.482 66.3367 134.889 67.2238C135.295 68.1027 135.499 69.1403 135.499 70.3365V71.838H126.93L126.893 71.899C126.909 72.7454 127.056 73.4982 127.332 74.1573C127.617 74.8084 128.024 75.3211 128.553 75.6954C129.082 76.0698 129.717 76.257 130.457 76.257C131.271 76.257 131.983 76.143 132.594 75.9152C133.212 75.6792 133.745 75.3577 134.193 74.9508L135.133 76.5133C134.661 76.969 134.034 77.3556 133.253 77.673C132.48 77.9822 131.548 78.1368 130.457 78.1368ZM127.003 69.9581H133.094V69.6407C133.094 69.006 132.98 68.4404 132.752 67.944C132.533 67.4394 132.199 67.0447 131.751 66.7599C131.312 66.4669 130.759 66.3204 130.091 66.3204C129.554 66.3204 129.066 66.4791 128.626 66.7965C128.187 67.1058 127.825 67.5289 127.54 68.066C127.255 68.6031 127.068 69.2135 126.978 69.8971L127.003 69.9581ZM143.678 78.1368C142.465 78.1368 141.415 77.8642 140.528 77.319C139.641 76.7656 138.958 76.0047 138.477 75.0363C138.005 74.0597 137.769 72.9407 137.769 71.6793V69.9703C137.769 68.2288 138.018 66.7273 138.514 65.4659C139.01 64.1964 139.71 63.1751 140.614 62.402C141.517 61.6289 142.579 61.1202 143.8 60.8761C144.825 60.6889 145.566 60.4651 146.021 60.2047C146.485 59.9443 146.717 59.517 146.717 58.923H148.573L148.597 58.9962C148.613 59.7124 148.536 60.2942 148.365 60.7418C148.202 61.1894 147.942 61.5475 147.584 61.816C147.226 62.0846 146.77 62.2962 146.217 62.4508C145.663 62.6054 145.008 62.7478 144.251 62.8781C143.511 63.0001 142.835 63.2321 142.225 63.5739C141.623 63.9075 141.122 64.3673 140.724 64.9532C140.333 65.531 140.077 66.2513 139.954 67.1139L140.003 67.1749C140.483 66.6622 141.086 66.2431 141.81 65.9176C142.542 65.5921 143.32 65.4293 144.141 65.4293C145.265 65.4293 146.233 65.6857 147.047 66.1984C147.861 66.7029 148.487 67.4069 148.927 68.3102C149.366 69.2054 149.586 70.2389 149.586 71.4108V71.6793C149.586 72.9407 149.346 74.0597 148.866 75.0363C148.394 76.0047 147.714 76.7656 146.827 77.319C145.948 77.8642 144.898 78.1368 143.678 78.1368ZM143.678 76.257C144.443 76.257 145.085 76.0616 145.606 75.671C146.127 75.2723 146.518 74.727 146.778 74.0353C147.047 73.3435 147.181 72.5582 147.181 71.6793V71.4108C147.181 70.6295 147.047 69.9296 146.778 69.3112C146.51 68.6927 146.115 68.2044 145.594 67.8463C145.073 67.4882 144.426 67.3092 143.653 67.3092C142.888 67.3092 142.245 67.4882 141.724 67.8463C141.212 68.2044 140.825 68.6927 140.565 69.3112C140.304 69.9296 140.174 70.6295 140.174 71.4108V71.6793C140.174 72.5582 140.304 73.3435 140.565 74.0353C140.825 74.727 141.216 75.2723 141.737 75.671C142.258 76.0616 142.905 76.257 143.678 76.257ZM151.673 77.8805V76.3424L153.663 76.0006V66.5646L151.673 66.2228V64.6725H156.056H158.045V66.2228L156.056 66.5646V74.0231L156.129 74.0475L161.952 64.6725H164.356H166.346V66.2228L164.356 66.5646V76.0006L166.346 76.3424V77.8805H159.962V76.3424L161.952 76.0006V68.5299L161.878 68.5055L156.056 77.8805H151.673ZM171.51 77.8805V76.3424L173.499 76.0006V66.5402H170.716L170.533 68.6031H168.482V64.6725H180.982V68.6031H178.919L178.736 66.5402H175.904V76.0006L177.894 76.3424V77.8805H171.51ZM187.953 78.1368C186.732 78.1368 185.67 77.8601 184.766 77.3068C183.863 76.7452 183.163 75.9681 182.667 74.9752C182.179 73.9824 181.934 72.8349 181.934 71.5328V70.9957C181.934 69.7425 182.191 68.6235 182.703 67.6388C183.224 66.646 183.912 65.8647 184.766 65.295C185.629 64.7172 186.569 64.4283 187.586 64.4283C188.774 64.4283 189.767 64.6725 190.565 65.1608C191.37 65.649 191.977 66.3367 192.384 67.2238C192.791 68.1027 192.994 69.1403 192.994 70.3365V71.838H184.425L184.388 71.899C184.404 72.7454 184.551 73.4982 184.828 74.1573C185.112 74.8084 185.519 75.3211 186.048 75.6954C186.577 76.0698 187.212 76.257 187.953 76.257C188.766 76.257 189.478 76.143 190.089 75.9152C190.707 75.6792 191.24 75.3577 191.688 74.9508L192.628 76.5133C192.156 76.969 191.529 77.3556 190.748 77.673C189.975 77.9822 189.043 78.1368 187.953 78.1368ZM184.498 69.9581H190.589V69.6407C190.589 69.006 190.475 68.4404 190.247 67.944C190.028 67.4394 189.694 67.0447 189.246 66.7599C188.807 66.4669 188.254 66.3204 187.586 66.3204C187.049 66.3204 186.561 66.4791 186.121 66.7965C185.682 67.1058 185.32 67.5289 185.035 68.066C184.75 68.6031 184.563 69.2135 184.474 69.8971L184.498 69.9581ZM194.813 77.8805L194.849 75.8297L195.35 75.8175C195.928 75.8175 196.384 75.6385 196.717 75.2804C197.051 74.9142 197.291 74.3282 197.437 73.5226C197.584 72.7088 197.657 71.6386 197.657 70.3121V66.5646L195.667 66.2228V64.6725H206.947H208.936V66.2228L206.947 66.5646V76.0006L208.936 76.3424V77.8805H202.552V76.3424L204.542 76.0006V66.5768H200.062V70.3121C200.062 72.9163 199.716 74.8287 199.024 76.0494C198.341 77.2701 197.165 77.8805 195.496 77.8805H194.813ZM218.885 69.2135C220.448 69.2135 221.664 69.6123 222.535 70.4098C223.406 71.1992 223.841 72.2286 223.841 73.4982C223.841 74.7758 223.402 75.8256 222.523 76.6476C221.652 77.4695 220.439 77.8805 218.885 77.8805H211.219V76.3424L213.209 76.0006V66.5646L211.219 66.2228V64.6725H217.603V66.2228L215.614 66.5646V69.2135H218.885ZM218.885 76.0006C219.756 76.0006 220.395 75.7727 220.802 75.317C221.217 74.8531 221.424 74.2753 221.424 73.5836C221.424 72.9163 221.217 72.3344 220.802 71.838C220.387 71.3416 219.748 71.0934 218.885 71.0934H215.614V76.0006H218.885ZM232.24 77.8805V76.3424L234.229 76.0006V66.5646L232.24 66.2228V64.6725H234.229H237.33L241.627 74.7311H241.7L246.009 64.6725H249.024H251.014V66.2228L249.024 66.5646V76.0006L251.014 76.3424V77.8805H244.63V76.3424L246.62 76.0006V68.713L246.546 68.6886L242.494 77.8805H240.833L236.707 68.4933L236.634 68.5177V76.0006L238.624 76.3424V77.8805H232.24ZM258.973 78.1368C257.752 78.1368 256.698 77.852 255.811 77.2823C254.932 76.7045 254.253 75.9111 253.773 74.902C253.293 73.8847 253.053 72.7251 253.053 71.423V71.1544C253.053 69.8523 253.293 68.6967 253.773 67.6876C254.253 66.6704 254.932 65.8728 255.811 65.295C256.698 64.7172 257.744 64.4283 258.949 64.4283C260.169 64.4283 261.219 64.7172 262.098 65.295C262.985 65.8728 263.669 66.6663 264.149 67.6754C264.629 68.6845 264.869 69.8442 264.869 71.1544V71.423C264.869 72.7332 264.629 73.8969 264.149 74.9142C263.669 75.9233 262.989 76.7127 262.11 77.2823C261.231 77.852 260.186 78.1368 258.973 78.1368ZM258.973 76.257C259.738 76.257 260.377 76.0494 260.89 75.6344C261.41 75.2112 261.801 74.6375 262.061 73.9132C262.33 73.1808 262.464 72.3507 262.464 71.423V71.1544C262.464 70.2267 262.33 69.4007 262.061 68.6764C261.801 67.944 261.41 67.3702 260.89 66.9552C260.369 66.532 259.722 66.3204 258.949 66.3204C258.184 66.3204 257.541 66.532 257.02 66.9552C256.499 67.3702 256.108 67.944 255.848 68.6764C255.588 69.4007 255.457 70.2267 255.457 71.1544V71.423C255.457 72.3507 255.588 73.1808 255.848 73.9132C256.108 74.6375 256.499 75.2112 257.02 75.6344C257.549 76.0494 258.2 76.257 258.973 76.257ZM273.499 78.1368C272.279 78.1368 271.217 77.8601 270.313 77.3068C269.41 76.7452 268.71 75.9681 268.214 74.9752C267.725 73.9824 267.481 72.8349 267.481 71.5328V70.9957C267.481 69.7425 267.738 68.6235 268.25 67.6388C268.771 66.646 269.459 65.8647 270.313 65.295C271.176 64.7172 272.116 64.4283 273.133 64.4283C274.321 64.4283 275.314 64.6725 276.112 65.1608C276.917 65.649 277.524 66.3367 277.931 67.2238C278.337 68.1027 278.541 69.1403 278.541 70.3365V71.838H269.972L269.935 71.899C269.951 72.7454 270.098 73.4982 270.374 74.1573C270.659 74.8084 271.066 75.3211 271.595 75.6954C272.124 76.0698 272.759 76.257 273.499 76.257C274.313 76.257 275.025 76.143 275.636 75.9152C276.254 75.6792 276.787 75.3577 277.235 74.9508L278.175 76.5133C277.703 76.969 277.076 77.3556 276.295 77.673C275.522 77.9822 274.59 78.1368 273.499 78.1368ZM270.045 69.9581H276.136V69.6407C276.136 69.006 276.022 68.4404 275.794 67.944C275.575 67.4394 275.241 67.0447 274.793 66.7599C274.354 66.4669 273.8 66.3204 273.133 66.3204C272.596 66.3204 272.108 66.4791 271.668 66.7965C271.229 67.1058 270.867 67.5289 270.582 68.066C270.297 68.6031 270.11 69.2135 270.02 69.8971L270.045 69.9581ZM280.702 77.8805V76.3424L282.691 76.0006V66.5646L280.702 66.2228V64.6725H285.084H287.074V66.2228L285.084 66.5646V74.0231L285.157 74.0475L290.98 64.6725H293.385H295.374V66.2228L293.385 66.5646V76.0006L295.374 76.3424V77.8805H288.99V76.3424L290.98 76.0006V68.5299L290.907 68.5055L285.084 77.8805H280.702ZM288.111 62.3531C286.931 62.3531 286.003 62.0358 285.328 61.401C284.653 60.7581 284.315 59.928 284.315 58.9108L284.339 58.8375H286.17C286.17 59.4235 286.325 59.8995 286.634 60.2657C286.952 60.632 287.444 60.8151 288.111 60.8151C288.762 60.8151 289.246 60.632 289.564 60.2657C289.881 59.8995 290.04 59.4235 290.04 58.8375H291.883L291.908 58.9108C291.899 59.928 291.558 60.7581 290.882 61.401C290.215 62.0358 289.291 62.3531 288.111 62.3531ZM303.968 77.8805V76.3424L305.958 76.0006V66.5646L303.968 66.2228V64.6725H318.641V66.2228L316.651 66.5646V76.0006L318.641 76.3424V77.8805H312.257V76.3424L314.246 76.0006V66.5768H308.363V76.0006L310.352 76.3424V77.8805H303.968ZM320.362 82.9586V81.4083L322.23 81.0665V66.5646L320.24 66.2228V64.6725H324.293L324.513 66.2838C324.952 65.6816 325.485 65.2218 326.112 64.9044C326.746 64.587 327.479 64.4283 328.309 64.4283C329.399 64.4283 330.331 64.7254 331.104 65.3195C331.877 65.9054 332.467 66.7314 332.874 67.7975C333.281 68.8554 333.485 70.0965 333.485 71.5206V71.777C333.485 73.0465 333.277 74.1573 332.862 75.1095C332.455 76.0616 331.869 76.8063 331.104 77.3434C330.339 77.8724 329.42 78.1368 328.346 78.1368C327.532 78.1368 326.816 78.0026 326.197 77.734C325.587 77.4573 325.066 77.0504 324.635 76.5133V81.0665L326.734 81.4083V82.9586H320.362ZM327.601 76.257C328.74 76.257 329.603 75.8419 330.189 75.0118C330.775 74.1818 331.068 73.1035 331.068 71.777V71.5206C331.068 70.5115 330.938 69.6245 330.677 68.8595C330.417 68.0864 330.026 67.4801 329.505 67.0406C328.993 66.6012 328.35 66.3815 327.577 66.3815C326.893 66.3815 326.307 66.5361 325.819 66.8453C325.33 67.1546 324.936 67.5778 324.635 68.1149V74.548C324.936 75.0932 325.326 75.5164 325.807 75.8175C326.295 76.1105 326.893 76.257 327.601 76.257ZM342.323 78.1368C341.102 78.1368 340.048 77.852 339.161 77.2823C338.282 76.7045 337.603 75.9111 337.122 74.902C336.642 73.8847 336.402 72.7251 336.402 71.423V71.1544C336.402 69.8523 336.642 68.6967 337.122 67.6876C337.603 66.6704 338.282 65.8728 339.161 65.295C340.048 64.7172 341.094 64.4283 342.298 64.4283C343.519 64.4283 344.569 64.7172 345.448 65.295C346.335 65.8728 347.018 66.6663 347.498 67.6754C347.979 68.6845 348.219 69.8442 348.219 71.1544V71.423C348.219 72.7332 347.979 73.8969 347.498 74.9142C347.018 75.9233 346.339 76.7127 345.46 77.2823C344.581 77.852 343.535 78.1368 342.323 78.1368ZM342.323 76.257C343.088 76.257 343.726 76.0494 344.239 75.6344C344.76 75.2112 345.151 74.6375 345.411 73.9132C345.68 73.1808 345.814 72.3507 345.814 71.423V71.1544C345.814 70.2267 345.68 69.4007 345.411 68.6764C345.151 67.944 344.76 67.3702 344.239 66.9552C343.718 66.532 343.071 66.3204 342.298 66.3204C341.533 66.3204 340.89 66.532 340.37 66.9552C339.849 67.3702 339.458 67.944 339.198 68.6764C338.937 69.4007 338.807 70.2267 338.807 71.1544V71.423C338.807 72.3507 338.937 73.1808 339.198 73.9132C339.458 74.6375 339.849 75.2112 340.37 75.6344C340.898 76.0494 341.55 76.257 342.323 76.257ZM349.647 81.7623L349.415 76.0006H350.453C350.794 75.61 351.091 75.2234 351.344 74.8409C351.604 74.4503 351.824 74.0231 352.003 73.5592C352.19 73.0872 352.341 72.5379 352.454 71.9113C352.577 71.2765 352.666 70.5197 352.723 69.6407L352.845 66.5524L350.929 66.2228V64.6725H361.549H363.538V66.2228L361.549 66.5646V76.0006H363.307L363.062 81.7623H360.902V77.8805H351.807V81.7623H349.647ZM353.224 76.0006H359.144V66.8087H355.238L355.128 69.6407C355.038 71.1056 354.827 72.3548 354.493 73.3883C354.168 74.4218 353.744 75.2926 353.224 76.0006ZM368.299 83.215C368.112 83.215 367.868 83.1906 367.567 83.1417C367.266 83.101 367.034 83.0603 366.871 83.0197L367.115 81.1276C367.253 81.1438 367.445 81.156 367.689 81.1642C367.933 81.1805 368.1 81.1886 368.189 81.1886C368.702 81.1886 369.117 80.9933 369.434 80.6027C369.76 80.212 370.061 79.679 370.338 79.0035L370.911 77.6119L366.236 66.4181L364.82 66.2228V64.6725H370.362V66.2228L368.763 66.4669L371.339 73.0709L371.961 74.7921H372.035L375.086 66.4669L373.402 66.2228V64.6725H378.834V66.2228L377.467 66.4181L372.266 79.9069C372.022 80.5416 371.725 81.1072 371.375 81.6036C371.034 82.1082 370.61 82.5029 370.106 82.7877C369.609 83.0726 369.007 83.215 368.299 83.215ZM380.262 77.8805V76.3424L382.252 76.0006V66.5646L380.262 66.2228V64.6725H386.646V66.2228L384.657 66.5646V70.2511H385.926L388.685 66.5524C389.181 65.8606 389.666 65.3357 390.138 64.9777C390.618 64.6196 391.155 64.4406 391.749 64.4406C392.123 64.4406 392.432 64.4894 392.677 64.587C392.921 64.6766 393.197 64.819 393.507 65.0143L393.165 66.65C392.815 66.5931 392.612 66.5605 392.555 66.5524C392.506 66.5442 392.4 66.5402 392.237 66.5402C391.936 66.5402 391.639 66.65 391.346 66.8698C391.061 67.0895 390.809 67.3499 390.589 67.651L388.038 70.9591L392.201 76.0372L393.897 76.3424V77.8805H390.687L386.219 72.2775H384.657V76.0006L386.646 76.3424V77.8805H380.262ZM407.288 81.799V77.8805H395.362V76.3424L397.352 76.0006V66.5646L395.362 66.2228V64.6725H401.746V66.2228L399.757 66.5646V76.0006H405.641V66.5646L403.651 66.2228V64.6725H410.035V66.2228L408.045 66.5768V76.0006H409.669L409.437 81.799H407.288ZM412.318 77.8805V76.3424L414.307 76.0006V66.5646L412.318 66.2228V64.6725H416.7H418.69V66.2228L416.7 66.5646V74.0231L416.773 74.0475L422.596 64.6725H425.001H426.991V66.2228L425.001 66.5646V76.0006L426.991 76.3424V77.8805H420.606V76.3424L422.596 76.0006V68.5299L422.523 68.5055L416.7 77.8805H412.318ZM429.359 77.8805V76.3424L431.349 76.0006V66.5646L429.359 66.2228V64.6725H433.741H435.731V66.2228L433.741 66.5646V74.0231L433.814 74.0475L439.637 64.6725H442.042H444.032V66.2228L442.042 66.5646V76.0006L444.032 76.3424V77.8805H437.647V76.3424L439.637 76.0006V68.5299L439.564 68.5055L433.741 77.8805H429.359ZM446.851 81.6769L445.496 80.7736C445.879 80.1876 446.168 79.5895 446.363 78.9791C446.558 78.3688 446.656 77.7218 446.656 77.0382V75.1827H449.061V77.0016C449.061 77.7991 448.862 78.6333 448.463 79.504C448.064 80.3748 447.527 81.0991 446.851 81.6769ZM27.601 109.88V108.342L29.5907 108.001V98.5646L27.601 98.2228V96.6725H33.9852V98.2228L31.9955 98.5646V102.385H37.8671V98.5646L35.8773 98.2228V96.6725H37.8671H40.2841H42.2738V98.2228L40.2841 98.5646V108.001L42.2738 108.342V109.88H35.8773V108.342L37.8671 108.001V104.265H31.9955V108.001L33.9852 108.342V109.88H27.601ZM50.3793 110.137C49.1586 110.137 48.0966 109.86 47.1932 109.307C46.2899 108.745 45.59 107.968 45.0936 106.975C44.6053 105.982 44.3612 104.835 44.3612 103.533V102.996C44.3612 101.742 44.6176 100.623 45.1302 99.6388C45.6511 98.646 46.3387 97.8647 47.1932 97.295C48.0559 96.7172 48.9958 96.4283 50.0131 96.4283C51.2012 96.4283 52.1941 96.6725 52.9916 97.1608C53.7972 97.649 54.4035 98.3367 54.8104 99.2238C55.2173 100.103 55.4208 101.14 55.4208 102.337V103.838H46.8514L46.8148 103.899C46.8311 104.745 46.9776 105.498 47.2543 106.157C47.5391 106.808 47.946 107.321 48.475 107.695C49.0039 108.07 49.6387 108.257 50.3793 108.257C51.1931 108.257 51.9052 108.143 52.5155 107.915C53.134 107.679 53.667 107.358 54.1146 106.951L55.0546 108.513C54.5826 108.969 53.9559 109.356 53.1747 109.673C52.4016 109.982 51.4698 110.137 50.3793 110.137ZM46.9247 101.958H53.016V101.641C53.016 101.006 52.9021 100.44 52.6742 99.944C52.4545 99.4394 52.1208 99.0447 51.6732 98.7599C51.2338 98.4669 50.6804 98.3204 50.0131 98.3204C49.476 98.3204 48.9877 98.4791 48.5482 98.7965C48.1088 99.1058 47.7466 99.5289 47.4618 100.066C47.177 100.603 46.9898 101.214 46.9003 101.897L46.9247 101.958ZM69.4955 110.137C68.2992 110.137 67.2575 109.86 66.3705 109.307C65.4834 108.745 64.7958 107.968 64.3075 106.975C63.8192 105.982 63.5751 104.835 63.5751 103.533V103.02C63.5751 101.767 63.8111 100.644 64.2831 99.651C64.7551 98.6582 65.4346 97.8728 66.3217 97.295C67.2087 96.7172 68.2666 96.4283 69.4955 96.4283C70.5616 96.4283 71.4934 96.6033 72.2909 96.9532C73.0966 97.3032 73.772 97.7833 74.3173 98.3937L74.3783 101.568H72.4984L72.0834 99.2604C71.8067 98.9755 71.4608 98.7477 71.0458 98.5768C70.6307 98.4059 70.1425 98.3204 69.5809 98.3204C68.8648 98.3204 68.2341 98.532 67.6888 98.9552C67.1517 99.3784 66.7326 99.944 66.4315 100.652C66.1304 101.36 65.9799 102.149 65.9799 103.02V103.533C65.9799 104.493 66.1182 105.327 66.3949 106.035C66.6797 106.743 67.0826 107.293 67.6034 107.683C68.1324 108.066 68.759 108.257 69.4833 108.257C70.2971 108.257 70.9725 108.033 71.5096 107.586C72.0468 107.138 72.3763 106.524 72.4984 105.742H74.6591L74.6835 105.816C74.6428 106.572 74.419 107.28 74.0121 107.94C73.6052 108.599 73.0233 109.132 72.2665 109.539C71.5178 109.937 70.5941 110.137 69.4955 110.137ZM79.432 115.215C79.2448 115.215 79.0007 115.191 78.6996 115.142C78.3985 115.101 78.1665 115.06 78.0038 115.02L78.2479 113.128C78.3863 113.144 78.5775 113.156 78.8217 113.164C79.0658 113.18 79.2326 113.189 79.3221 113.189C79.8348 113.189 80.2499 112.993 80.5673 112.603C80.8928 112.212 81.1939 111.679 81.4706 111.004L82.0443 109.612L77.369 98.4181L75.953 98.2228V96.6725H81.495V98.2228L79.8959 98.4669L82.4716 105.071L83.0941 106.792H83.1674L86.2191 98.4669L84.5345 98.2228V96.6725H89.9667V98.2228L88.5995 98.4181L83.3993 111.907C83.1552 112.542 82.8581 113.107 82.5082 113.604C82.1664 114.108 81.7432 114.503 81.2386 114.788C80.7422 115.073 80.14 115.215 79.432 115.215ZM90.5648 113.762L90.3329 108.001H91.3705C91.7123 107.61 92.0093 107.223 92.2616 106.841C92.522 106.45 92.7417 106.023 92.9208 105.559C93.108 105.087 93.2585 104.538 93.3724 103.911C93.4945 103.276 93.584 102.52 93.641 101.641L93.7631 98.5524L91.8466 98.2228V96.6725H102.467H104.456V98.2228L102.467 98.5646V108.001H104.224L103.98 113.762H101.82V109.88H92.7255V113.762H90.5648ZM94.1415 108.001H100.062V98.8087H96.1556L96.0458 101.641C95.9563 103.106 95.7447 104.355 95.411 105.388C95.0855 106.422 94.6623 107.293 94.1415 108.001ZM114.295 101.214C115.858 101.214 117.074 101.612 117.945 102.41C118.816 103.199 119.251 104.229 119.251 105.498C119.251 106.776 118.812 107.826 117.933 108.648C117.062 109.47 115.85 109.88 114.295 109.88H106.629V108.342L108.619 108.001V98.5646L106.629 98.2228V96.6725H113.014V98.2228L111.024 98.5646V101.214H114.295ZM114.295 108.001C115.166 108.001 115.805 107.773 116.212 107.317C116.627 106.853 116.834 106.275 116.834 105.584C116.834 104.916 116.627 104.334 116.212 103.838C115.797 103.342 115.158 103.093 114.295 103.093H111.024V108.001H114.295ZM121.034 109.88V108.342L122.767 108.086L125.025 104.4C124.187 104.098 123.54 103.622 123.084 102.971C122.637 102.32 122.413 101.568 122.413 100.713C122.413 99.9155 122.616 99.2156 123.023 98.6134C123.43 98.0031 124.012 97.527 124.769 97.1852C125.534 96.8434 126.437 96.6725 127.479 96.6725H135.047V98.2228L133.057 98.5646V108.001L135.047 108.342V109.88H128.663V108.342L130.653 108.001V104.754H127.393L124.268 109.88H121.034ZM127.235 102.861H130.653V98.5402H127.479C126.608 98.5402 125.949 98.7599 125.501 99.1993C125.054 99.6307 124.83 100.143 124.83 100.737C124.83 101.323 125.029 101.824 125.428 102.239C125.835 102.654 126.437 102.861 127.235 102.861ZM137.769 113.677L136.414 112.774C136.797 112.188 137.086 111.589 137.281 110.979C137.476 110.369 137.574 109.722 137.574 109.038V107.183H139.979V109.002C139.979 109.799 139.78 110.633 139.381 111.504C138.982 112.375 138.445 113.099 137.769 113.677ZM152.467 110.137C151.091 110.137 150.046 109.803 149.329 109.136C148.613 108.46 148.255 107.512 148.255 106.292C148.255 105.038 148.768 104.033 149.793 103.276C150.819 102.512 152.243 102.129 154.066 102.129H156.422V100.835C156.422 100.038 156.178 99.4191 155.689 98.9796C155.209 98.5402 154.53 98.3204 153.651 98.3204C153.097 98.3204 152.617 98.3896 152.21 98.528C151.803 98.6582 151.433 98.8413 151.099 99.0773L150.843 100.921H148.988V97.8932C149.582 97.413 150.273 97.0509 151.063 96.8068C151.852 96.5545 152.727 96.4283 153.687 96.4283C155.291 96.4283 156.548 96.8108 157.459 97.5758C158.371 98.3408 158.827 99.4353 158.827 100.859V107.219C158.827 107.39 158.827 107.557 158.827 107.72C158.835 107.883 158.847 108.045 158.863 108.208L160.145 108.342V109.88H156.69C156.617 109.522 156.56 109.201 156.519 108.916C156.479 108.631 156.45 108.346 156.434 108.062C155.97 108.656 155.388 109.152 154.688 109.551C153.997 109.942 153.256 110.137 152.467 110.137ZM152.821 108.123C153.618 108.123 154.347 107.931 155.006 107.549C155.665 107.166 156.137 106.707 156.422 106.17V103.777H153.98C152.874 103.777 152.043 104.041 151.49 104.57C150.937 105.099 150.66 105.689 150.66 106.34C150.66 106.918 150.839 107.362 151.197 107.671C151.555 107.972 152.096 108.123 152.821 108.123ZM174.207 110.137C173.011 110.137 171.969 109.86 171.082 109.307C170.195 108.745 169.508 107.968 169.019 106.975C168.531 105.982 168.287 104.835 168.287 103.533V103.02C168.287 101.767 168.523 100.644 168.995 99.651C169.467 98.6582 170.147 97.8728 171.034 97.295C171.921 96.7172 172.979 96.4283 174.207 96.4283C175.273 96.4283 176.205 96.6033 177.003 96.9532C177.808 97.3032 178.484 97.7833 179.029 98.3937L179.09 101.568H177.21L176.795 99.2604C176.519 98.9755 176.173 98.7477 175.758 98.5768C175.343 98.4059 174.854 98.3204 174.293 98.3204C173.577 98.3204 172.946 98.532 172.401 98.9552C171.864 99.3784 171.445 99.944 171.143 100.652C170.842 101.36 170.692 102.149 170.692 103.02V103.533C170.692 104.493 170.83 105.327 171.107 106.035C171.392 106.743 171.794 107.293 172.315 107.683C172.844 108.066 173.471 108.257 174.195 108.257C175.009 108.257 175.684 108.033 176.222 107.586C176.759 107.138 177.088 106.524 177.21 105.742H179.371L179.395 105.816C179.355 106.572 179.131 107.28 178.724 107.94C178.317 108.599 177.735 109.132 176.978 109.539C176.23 109.937 175.306 110.137 174.207 110.137ZM187.562 110.137C186.341 110.137 185.287 109.852 184.4 109.282C183.521 108.705 182.842 107.911 182.362 106.902C181.882 105.885 181.641 104.725 181.641 103.423V103.154C181.641 101.852 181.882 100.697 182.362 99.6876C182.842 98.6704 183.521 97.8728 184.4 97.295C185.287 96.7172 186.333 96.4283 187.537 96.4283C188.758 96.4283 189.808 96.7172 190.687 97.295C191.574 97.8728 192.258 98.6663 192.738 99.6754C193.218 100.685 193.458 101.844 193.458 103.154V103.423C193.458 104.733 193.218 105.897 192.738 106.914C192.258 107.923 191.578 108.713 190.699 109.282C189.82 109.852 188.774 110.137 187.562 110.137ZM187.562 108.257C188.327 108.257 188.966 108.049 189.478 107.634C189.999 107.211 190.39 106.637 190.65 105.913C190.919 105.181 191.053 104.351 191.053 103.423V103.154C191.053 102.227 190.919 101.401 190.65 100.676C190.39 99.944 189.999 99.3702 189.478 98.9552C188.958 98.532 188.311 98.3204 187.537 98.3204C186.773 98.3204 186.13 98.532 185.609 98.9552C185.088 99.3702 184.697 99.944 184.437 100.676C184.176 101.401 184.046 102.227 184.046 103.154V103.423C184.046 104.351 184.176 105.181 184.437 105.913C184.697 106.637 185.088 107.211 185.609 107.634C186.138 108.049 186.789 108.257 187.562 108.257ZM198.06 115.215C197.873 115.215 197.629 115.191 197.328 115.142C197.026 115.101 196.794 115.06 196.632 115.02L196.876 113.128C197.014 113.144 197.205 113.156 197.45 113.164C197.694 113.18 197.861 113.189 197.95 113.189C198.463 113.189 198.878 112.993 199.195 112.603C199.521 112.212 199.822 111.679 200.099 111.004L200.672 109.612L195.997 98.4181L194.581 98.2228V96.6725H200.123V98.2228L198.524 98.4669L201.099 105.071L201.722 106.792H201.795L204.847 98.4669L203.162 98.2228V96.6725H208.595V98.2228L207.227 98.4181L202.027 111.907C201.783 112.542 201.486 113.107 201.136 113.604C200.794 114.108 200.371 114.503 199.867 114.788C199.37 115.073 198.768 115.215 198.06 115.215ZM217.725 109.88V108.342L219.715 108.001V105.169C219.243 105.291 218.763 105.38 218.275 105.437C217.786 105.494 217.27 105.523 216.724 105.523C215.667 105.523 214.755 105.335 213.99 104.961C213.225 104.587 212.639 104.029 212.232 103.289C211.825 102.548 211.622 101.633 211.622 100.542V98.5402L209.632 98.1984V96.6603H214.027H216.016V98.1984L214.027 98.5402V100.542C214.027 101.242 214.124 101.82 214.32 102.276C214.523 102.731 214.824 103.069 215.223 103.289C215.63 103.508 216.13 103.618 216.724 103.618C217.262 103.618 217.774 103.59 218.263 103.533C218.751 103.468 219.235 103.374 219.715 103.252V98.5646L217.725 98.2228V96.6725H224.11V98.2228L222.12 98.5646V108.001L224.11 108.342V109.88H217.725ZM230.567 110.137C229.192 110.137 228.146 109.803 227.43 109.136C226.714 108.46 226.356 107.512 226.356 106.292C226.356 105.038 226.869 104.033 227.894 103.276C228.919 102.512 230.343 102.129 232.166 102.129H234.522V100.835C234.522 100.038 234.278 99.4191 233.79 98.9796C233.31 98.5402 232.63 98.3204 231.751 98.3204C231.198 98.3204 230.718 98.3896 230.311 98.528C229.904 98.6582 229.534 98.8413 229.2 99.0773L228.944 100.921H227.088V97.8932C227.682 97.413 228.374 97.0509 229.163 96.8068C229.953 96.5545 230.828 96.4283 231.788 96.4283C233.391 96.4283 234.648 96.8108 235.56 97.5758C236.471 98.3408 236.927 99.4353 236.927 100.859V107.219C236.927 107.39 236.927 107.557 236.927 107.72C236.935 107.883 236.947 108.045 236.964 108.208L238.245 108.342V109.88H234.791C234.718 109.522 234.661 109.201 234.62 108.916C234.579 108.631 234.551 108.346 234.535 108.062C234.071 108.656 233.489 109.152 232.789 109.551C232.097 109.942 231.357 110.137 230.567 110.137ZM230.921 108.123C231.719 108.123 232.447 107.931 233.106 107.549C233.766 107.166 234.238 106.707 234.522 106.17V103.777H232.081C230.974 103.777 230.144 104.041 229.591 104.57C229.037 105.099 228.761 105.689 228.761 106.34C228.761 106.918 228.94 107.362 229.298 107.671C229.656 107.972 230.197 108.123 230.921 108.123ZM246.082 110.137C244.886 110.137 243.844 109.86 242.957 109.307C242.07 108.745 241.383 107.968 240.894 106.975C240.406 105.982 240.162 104.835 240.162 103.533V103.02C240.162 101.767 240.398 100.644 240.87 99.651C241.342 98.6582 242.022 97.8728 242.909 97.295C243.796 96.7172 244.854 96.4283 246.082 96.4283C247.148 96.4283 248.08 96.6033 248.878 96.9532C249.683 97.3032 250.359 97.7833 250.904 98.3937L250.965 101.568H249.085L248.67 99.2604C248.394 98.9755 248.048 98.7477 247.633 98.5768C247.218 98.4059 246.729 98.3204 246.168 98.3204C245.452 98.3204 244.821 98.532 244.276 98.9552C243.739 99.3784 243.32 99.944 243.018 100.652C242.717 101.36 242.567 102.149 242.567 103.02V103.533C242.567 104.493 242.705 105.327 242.982 106.035C243.267 106.743 243.669 107.293 244.19 107.683C244.719 108.066 245.346 108.257 246.07 108.257C246.884 108.257 247.559 108.033 248.097 107.586C248.634 107.138 248.963 106.524 249.085 105.742H251.246L251.27 105.816C251.23 106.572 251.006 107.28 250.599 107.94C250.192 108.599 249.61 109.132 248.853 109.539C248.105 109.937 247.181 110.137 246.082 110.137ZM256.226 109.88V108.342L258.216 108.001V98.5402H255.433L255.25 100.603H253.199V96.6725H265.699V100.603H263.636L263.453 98.5402H260.621V108.001L262.611 108.342V109.88H256.226ZM267.909 109.88V108.342L269.898 108.001V98.5646L267.909 98.2228V96.6725H274.293V98.2228L272.303 98.5646V102.385H278.175V98.5646L276.185 98.2228V96.6725H278.175H280.592H282.581V98.2228L280.592 98.5646V108.001L282.581 108.342V109.88H276.185V108.342L278.175 108.001V104.265H272.303V108.001L274.293 108.342V109.88H267.909ZM284.95 109.88V108.342L286.939 108.001V98.5646L284.95 98.2228V96.6725H289.332H291.322V98.2228L289.332 98.5646V106.023L289.405 106.047L295.228 96.6725H297.633H299.622V98.2228L297.633 98.5646V108.001L299.622 108.342V109.88H293.238V108.342L295.228 108.001V100.53L295.155 100.505L289.332 109.88H284.95ZM301.991 109.88V108.342L303.98 108.001V98.5646L301.991 98.2228V96.6725H308.375V98.2228L306.385 98.5646V102.251H307.655L310.413 98.5524C310.91 97.8606 311.394 97.3357 311.866 96.9777C312.346 96.6196 312.883 96.4406 313.477 96.4406C313.852 96.4406 314.161 96.4894 314.405 96.587C314.649 96.6766 314.926 96.819 315.235 97.0143L314.893 98.65C314.543 98.5931 314.34 98.5605 314.283 98.5524C314.234 98.5442 314.128 98.5402 313.966 98.5402C313.665 98.5402 313.368 98.65 313.075 98.8698C312.79 99.0895 312.537 99.3499 312.318 99.651L309.766 102.959L313.929 108.037L315.626 108.342V109.88H312.415L307.948 104.277H306.385V108.001L308.375 108.342V109.88H301.991ZM30.3964 141.88V140.342L32.3861 140.001V130.54H29.6029L29.4198 132.603H27.369V128.672H39.869V132.603H37.806L37.6229 130.54H34.7909V140.001L36.7806 140.342V141.88H30.3964ZM42.0785 141.88V140.342L44.0682 140.001V130.565L42.0785 130.223V128.672H44.0682H49.2684C51.01 128.672 52.3609 128.978 53.3212 129.588C54.2815 130.19 54.7616 131.098 54.7616 132.31C54.7616 132.929 54.5744 133.482 54.2001 133.97C53.8257 134.45 53.2968 134.817 52.6132 135.069C53.4351 135.272 54.078 135.655 54.5419 136.216C55.0057 136.77 55.2377 137.405 55.2377 138.121C55.2377 139.358 54.786 140.294 53.8827 140.928C52.9875 141.563 51.7302 141.88 50.1107 141.88H42.0785ZM46.473 140.025H50.1107C51.0059 140.025 51.6814 139.858 52.1371 139.525C52.5928 139.183 52.8207 138.694 52.8207 138.06C52.8207 137.433 52.5928 136.949 52.1371 136.607C51.6814 136.265 51.0059 136.094 50.1107 136.094H46.473V140.025ZM46.473 134.251H49.2806C50.2979 134.251 51.0629 134.101 51.5756 133.799C52.0964 133.498 52.3568 133.043 52.3568 132.432C52.3568 131.171 51.3274 130.54 49.2684 130.54H46.473V134.251ZM63.2943 142.137C62.0736 142.137 61.0197 141.852 60.1327 141.282C59.2538 140.705 58.5743 139.911 58.0941 138.902C57.614 137.885 57.3739 136.725 57.3739 135.423V135.154C57.3739 133.852 57.614 132.697 58.0941 131.688C58.5743 130.67 59.2538 129.873 60.1327 129.295C61.0197 128.717 62.0655 128.428 63.2699 128.428C64.4906 128.428 65.5404 128.717 66.4193 129.295C67.3064 129.873 67.9899 130.666 68.4701 131.675C68.9502 132.685 69.1903 133.844 69.1903 135.154V135.423C69.1903 136.733 68.9502 137.897 68.4701 138.914C67.9899 139.923 67.3104 140.713 66.4315 141.282C65.5526 141.852 64.5069 142.137 63.2943 142.137ZM63.2943 140.257C64.0593 140.257 64.6981 140.049 65.2108 139.634C65.7316 139.211 66.1223 138.637 66.3827 137.913C66.6512 137.181 66.7855 136.351 66.7855 135.423V135.154C66.7855 134.227 66.6512 133.401 66.3827 132.676C66.1223 131.944 65.7316 131.37 65.2108 130.955C64.69 130.532 64.043 130.32 63.2699 130.32C62.5049 130.32 61.862 130.532 61.3412 130.955C60.8204 131.37 60.4297 131.944 60.1693 132.676C59.9089 133.401 59.7787 134.227 59.7787 135.154V135.423C59.7787 136.351 59.9089 137.181 60.1693 137.913C60.4297 138.637 60.8204 139.211 61.3412 139.634C61.8702 140.049 62.5212 140.257 63.2943 140.257ZM70.9969 146.959V145.408L72.8646 145.067V130.565L70.8749 130.223V128.672H74.9276L75.1473 130.284C75.5868 129.682 76.1198 129.222 76.7465 128.904C77.3812 128.587 78.1136 128.428 78.9437 128.428C80.0342 128.428 80.966 128.725 81.7391 129.319C82.5122 129.905 83.1023 130.731 83.5092 131.797C83.9161 132.855 84.1195 134.096 84.1195 135.521V135.777C84.1195 137.047 83.912 138.157 83.4969 139.109C83.09 140.062 82.5041 140.806 81.7391 141.343C80.9742 141.872 80.0546 142.137 78.9803 142.137C78.1665 142.137 77.4504 142.003 76.8319 141.734C76.2216 141.457 75.7007 141.05 75.2694 140.513V145.067L77.369 145.408V146.959H70.9969ZM78.2357 140.257C79.375 140.257 80.2377 139.842 80.8236 139.012C81.4095 138.182 81.7025 137.103 81.7025 135.777V135.521C81.7025 134.512 81.5723 133.624 81.3119 132.859C81.0515 132.086 80.6608 131.48 80.14 131.041C79.6273 130.601 78.9844 130.381 78.2113 130.381C77.5277 130.381 76.9418 130.536 76.4535 130.845C75.9652 131.155 75.5705 131.578 75.2694 132.115V138.548C75.5705 139.093 75.9611 139.516 76.4413 139.818C76.9296 140.11 77.5277 140.257 78.2357 140.257ZM94.4833 141.88V140.342L96.473 140.001V137.169C96.001 137.291 95.5209 137.38 95.0326 137.437C94.5443 137.494 94.0275 137.523 93.4823 137.523C92.4244 137.523 91.5129 137.335 90.7479 136.961C89.983 136.587 89.397 136.029 88.9901 135.289C88.5832 134.548 88.3798 133.633 88.3798 132.542V130.54L86.39 130.198V128.66H90.7845H92.7743V130.198L90.7845 130.54V132.542C90.7845 133.242 90.8822 133.82 91.0775 134.276C91.281 134.731 91.5821 135.069 91.9808 135.289C92.3877 135.508 92.8882 135.618 93.4823 135.618C94.0194 135.618 94.5321 135.59 95.0204 135.533C95.5087 135.468 95.9929 135.374 96.473 135.252V130.565L94.4833 130.223V128.672H100.868V130.223L98.8778 130.565V140.001L100.868 140.342V141.88H94.4833ZM109.071 142.137C107.85 142.137 106.788 141.86 105.885 141.307C104.981 140.745 104.281 139.968 103.785 138.975C103.297 137.982 103.053 136.835 103.053 135.533V134.996C103.053 133.742 103.309 132.623 103.822 131.639C104.342 130.646 105.03 129.865 105.885 129.295C106.747 128.717 107.687 128.428 108.704 128.428C109.893 128.428 110.885 128.672 111.683 129.161C112.489 129.649 113.095 130.337 113.502 131.224C113.909 132.103 114.112 133.14 114.112 134.337V135.838H105.543L105.506 135.899C105.523 136.745 105.669 137.498 105.946 138.157C106.231 138.808 106.637 139.321 107.166 139.695C107.695 140.07 108.33 140.257 109.071 140.257C109.884 140.257 110.597 140.143 111.207 139.915C111.825 139.679 112.358 139.358 112.806 138.951L113.746 140.513C113.274 140.969 112.647 141.356 111.866 141.673C111.093 141.982 110.161 142.137 109.071 142.137ZM105.616 133.958H111.707V133.641C111.707 133.006 111.593 132.44 111.366 131.944C111.146 131.439 110.812 131.045 110.365 130.76C109.925 130.467 109.372 130.32 108.704 130.32C108.167 130.32 107.679 130.479 107.24 130.797C106.8 131.106 106.438 131.529 106.153 132.066C105.868 132.603 105.681 133.214 105.592 133.897L105.616 133.958ZM122.45 142.137C121.253 142.137 120.212 141.86 119.325 141.307C118.438 140.745 117.75 139.968 117.262 138.975C116.773 137.982 116.529 136.835 116.529 135.533V135.02C116.529 133.767 116.765 132.644 117.237 131.651C117.709 130.658 118.389 129.873 119.276 129.295C120.163 128.717 121.221 128.428 122.45 128.428C123.516 128.428 124.447 128.603 125.245 128.953C126.051 129.303 126.726 129.783 127.271 130.394L127.332 133.568H125.453L125.037 131.26C124.761 130.976 124.415 130.748 124 130.577C123.585 130.406 123.097 130.32 122.535 130.32C121.819 130.32 121.188 130.532 120.643 130.955C120.106 131.378 119.687 131.944 119.386 132.652C119.085 133.36 118.934 134.149 118.934 135.02V135.533C118.934 136.493 119.072 137.327 119.349 138.035C119.634 138.743 120.037 139.293 120.557 139.683C121.086 140.066 121.713 140.257 122.437 140.257C123.251 140.257 123.927 140.033 124.464 139.586C125.001 139.138 125.33 138.524 125.453 137.742H127.613L127.638 137.816C127.597 138.572 127.373 139.28 126.966 139.94C126.559 140.599 125.977 141.132 125.221 141.539C124.472 141.937 123.548 142.137 122.45 142.137ZM132.594 141.88V140.342L134.583 140.001V130.54H131.8L131.617 132.603H129.566V128.672H142.066V132.603H140.003L139.82 130.54H136.988V140.001L138.978 140.342V141.88H132.594ZM144.276 141.88V140.342L146.266 140.001V130.565L144.276 130.223V128.672H146.266H151.466C153.207 128.672 154.558 128.978 155.518 129.588C156.479 130.19 156.959 131.098 156.959 132.31C156.959 132.929 156.772 133.482 156.397 133.97C156.023 134.45 155.494 134.817 154.81 135.069C155.632 135.272 156.275 135.655 156.739 136.216C157.203 136.77 157.435 137.405 157.435 138.121C157.435 139.358 156.983 140.294 156.08 140.928C155.185 141.563 153.927 141.88 152.308 141.88H144.276ZM148.67 140.025H152.308C153.203 140.025 153.879 139.858 154.334 139.525C154.79 139.183 155.018 138.694 155.018 138.06C155.018 137.433 154.79 136.949 154.334 136.607C153.879 136.265 153.203 136.094 152.308 136.094H148.67V140.025ZM148.67 134.251H151.478C152.495 134.251 153.26 134.101 153.773 133.799C154.294 133.498 154.554 133.043 154.554 132.432C154.554 131.171 153.525 130.54 151.466 130.54H148.67V134.251ZM163.795 142.137C162.419 142.137 161.374 141.803 160.658 141.136C159.941 140.46 159.583 139.512 159.583 138.292C159.583 137.038 160.096 136.033 161.121 135.276C162.147 134.512 163.571 134.129 165.394 134.129H167.75V132.835C167.75 132.038 167.506 131.419 167.017 130.98C166.537 130.54 165.858 130.32 164.979 130.32C164.425 130.32 163.945 130.39 163.538 130.528C163.132 130.658 162.761 130.841 162.428 131.077L162.171 132.921H160.316V129.893C160.91 129.413 161.602 129.051 162.391 128.807C163.18 128.554 164.055 128.428 165.016 128.428C166.619 128.428 167.876 128.811 168.787 129.576C169.699 130.341 170.155 131.435 170.155 132.859V139.219C170.155 139.39 170.155 139.557 170.155 139.72C170.163 139.883 170.175 140.045 170.191 140.208L171.473 140.342V141.88H168.018C167.945 141.522 167.888 141.201 167.848 140.916C167.807 140.631 167.778 140.346 167.762 140.062C167.298 140.656 166.716 141.152 166.016 141.551C165.325 141.942 164.584 142.137 163.795 142.137ZM164.149 140.123C164.946 140.123 165.675 139.931 166.334 139.549C166.993 139.166 167.465 138.707 167.75 138.17V135.777H165.308C164.202 135.777 163.372 136.041 162.818 136.57C162.265 137.099 161.988 137.689 161.988 138.34C161.988 138.918 162.167 139.362 162.525 139.671C162.883 139.972 163.425 140.123 164.149 140.123ZM174.073 145.677L172.718 144.774C173.101 144.188 173.39 143.589 173.585 142.979C173.78 142.369 173.878 141.722 173.878 141.038V139.183H176.283V141.002C176.283 141.799 176.083 142.633 175.684 143.504C175.286 144.375 174.749 145.099 174.073 145.677ZM190.467 142.137C189.271 142.137 188.229 141.86 187.342 141.307C186.455 140.745 185.767 139.968 185.279 138.975C184.791 137.982 184.547 136.835 184.547 135.533V135.02C184.547 133.767 184.783 132.644 185.255 131.651C185.727 130.658 186.406 129.873 187.293 129.295C188.18 128.717 189.238 128.428 190.467 128.428C191.533 128.428 192.465 128.603 193.263 128.953C194.068 129.303 194.744 129.783 195.289 130.394L195.35 133.568H193.47L193.055 131.26C192.778 130.976 192.432 130.748 192.017 130.577C191.602 130.406 191.114 130.32 190.553 130.32C189.836 130.32 189.206 130.532 188.661 130.955C188.123 131.378 187.704 131.944 187.403 132.652C187.102 133.36 186.952 134.149 186.952 135.02V135.533C186.952 136.493 187.09 137.327 187.367 138.035C187.651 138.743 188.054 139.293 188.575 139.683C189.104 140.066 189.731 140.257 190.455 140.257C191.269 140.257 191.944 140.033 192.481 139.586C193.018 139.138 193.348 138.524 193.47 137.742H195.631L195.655 137.816C195.614 138.572 195.391 139.28 194.984 139.94C194.577 140.599 193.995 141.132 193.238 141.539C192.489 141.937 191.566 142.137 190.467 142.137ZM203.822 142.137C202.601 142.137 201.547 141.852 200.66 141.282C199.781 140.705 199.102 139.911 198.621 138.902C198.141 137.885 197.901 136.725 197.901 135.423V135.154C197.901 133.852 198.141 132.697 198.621 131.688C199.102 130.67 199.781 129.873 200.66 129.295C201.547 128.717 202.593 128.428 203.797 128.428C205.018 128.428 206.068 128.717 206.947 129.295C207.834 129.873 208.517 130.666 208.997 131.675C209.478 132.685 209.718 133.844 209.718 135.154V135.423C209.718 136.733 209.478 137.897 208.997 138.914C208.517 139.923 207.838 140.713 206.959 141.282C206.08 141.852 205.034 142.137 203.822 142.137ZM203.822 140.257C204.587 140.257 205.225 140.049 205.738 139.634C206.259 139.211 206.65 138.637 206.91 137.913C207.179 137.181 207.313 136.351 207.313 135.423V135.154C207.313 134.227 207.179 133.401 206.91 132.676C206.65 131.944 206.259 131.37 205.738 130.955C205.217 130.532 204.57 130.32 203.797 130.32C203.032 130.32 202.389 130.532 201.869 130.955C201.348 131.37 200.957 131.944 200.697 132.676C200.436 133.401 200.306 134.227 200.306 135.154V135.423C200.306 136.351 200.436 137.181 200.697 137.913C200.957 138.637 201.348 139.211 201.869 139.634C202.398 140.049 203.049 140.257 203.822 140.257ZM216.407 142.137C215.032 142.137 213.986 141.803 213.27 141.136C212.554 140.46 212.196 139.512 212.196 138.292C212.196 137.038 212.708 136.033 213.734 135.276C214.759 134.512 216.183 134.129 218.006 134.129H220.362V132.835C220.362 132.038 220.118 131.419 219.63 130.98C219.15 130.54 218.47 130.32 217.591 130.32C217.038 130.32 216.558 130.39 216.151 130.528C215.744 130.658 215.374 130.841 215.04 131.077L214.784 132.921H212.928V129.893C213.522 129.413 214.214 129.051 215.003 128.807C215.793 128.554 216.668 128.428 217.628 128.428C219.231 128.428 220.488 128.811 221.4 129.576C222.311 130.341 222.767 131.435 222.767 132.859V139.219C222.767 139.39 222.767 139.557 222.767 139.72C222.775 139.883 222.787 140.045 222.804 140.208L224.085 140.342V141.88H220.631C220.557 141.522 220.501 141.201 220.46 140.916C220.419 140.631 220.391 140.346 220.374 140.062C219.911 140.656 219.329 141.152 218.629 141.551C217.937 141.942 217.196 142.137 216.407 142.137ZM216.761 140.123C217.559 140.123 218.287 139.931 218.946 139.549C219.605 139.166 220.077 138.707 220.362 138.17V135.777H217.921C216.814 135.777 215.984 136.041 215.431 136.57C214.877 137.099 214.6 137.689 214.6 138.34C214.6 138.918 214.78 139.362 215.138 139.671C215.496 139.972 216.037 140.123 216.761 140.123ZM226.234 141.88V140.342L228.224 140.001V130.565L226.234 130.223V128.672H228.224H233.424C235.165 128.672 236.516 128.978 237.476 129.588C238.437 130.19 238.917 131.098 238.917 132.31C238.917 132.929 238.73 133.482 238.355 133.97C237.981 134.45 237.452 134.817 236.768 135.069C237.59 135.272 238.233 135.655 238.697 136.216C239.161 136.77 239.393 137.405 239.393 138.121C239.393 139.358 238.941 140.294 238.038 140.928C237.143 141.563 235.885 141.88 234.266 141.88H226.234ZM230.628 140.025H234.266C235.161 140.025 235.837 139.858 236.292 139.525C236.748 139.183 236.976 138.694 236.976 138.06C236.976 137.433 236.748 136.949 236.292 136.607C235.837 136.265 235.161 136.094 234.266 136.094H230.628V140.025ZM230.628 134.251H233.436C234.453 134.251 235.218 134.101 235.731 133.799C236.252 133.498 236.512 133.043 236.512 132.432C236.512 131.171 235.483 130.54 233.424 130.54H230.628V134.251ZM244.41 141.88V140.342L246.4 140.001V130.54H243.617L243.433 132.603H241.383V128.672H253.883V132.603H251.82L251.637 130.54H248.805V140.001L250.794 140.342V141.88H244.41ZM261.268 142.137C260.047 142.137 258.993 141.852 258.106 141.282C257.227 140.705 256.548 139.911 256.068 138.902C255.588 137.885 255.348 136.725 255.348 135.423V135.154C255.348 133.852 255.588 132.697 256.068 131.688C256.548 130.67 257.227 129.873 258.106 129.295C258.993 128.717 260.039 128.428 261.244 128.428C262.464 128.428 263.514 128.717 264.393 129.295C265.28 129.873 265.964 130.666 266.444 131.675C266.924 132.685 267.164 133.844 267.164 135.154V135.423C267.164 136.733 266.924 137.897 266.444 138.914C265.964 139.923 265.284 140.713 264.405 141.282C263.526 141.852 262.481 142.137 261.268 142.137ZM261.268 140.257C262.033 140.257 262.672 140.049 263.184 139.634C263.705 139.211 264.096 138.637 264.356 137.913C264.625 137.181 264.759 136.351 264.759 135.423V135.154C264.759 134.227 264.625 133.401 264.356 132.676C264.096 131.944 263.705 131.37 263.184 130.955C262.664 130.532 262.017 130.32 261.244 130.32C260.479 130.32 259.836 130.532 259.315 130.955C258.794 131.37 258.403 131.944 258.143 132.676C257.883 133.401 257.752 134.227 257.752 135.154V135.423C257.752 136.351 257.883 137.181 258.143 137.913C258.403 138.637 258.794 139.211 259.315 139.634C259.844 140.049 260.495 140.257 261.268 140.257ZM268.971 146.959V145.408L270.838 145.067V130.565L268.849 130.223V128.672H272.901L273.121 130.284C273.56 129.682 274.093 129.222 274.72 128.904C275.355 128.587 276.087 128.428 276.917 128.428C278.008 128.428 278.94 128.725 279.713 129.319C280.486 129.905 281.076 130.731 281.483 131.797C281.89 132.855 282.093 134.096 282.093 135.521V135.777C282.093 137.047 281.886 138.157 281.471 139.109C281.064 140.062 280.478 140.806 279.713 141.343C278.948 141.872 278.028 142.137 276.954 142.137C276.14 142.137 275.424 142.003 274.806 141.734C274.195 141.457 273.674 141.05 273.243 140.513V145.067L275.343 145.408V146.959H268.971ZM276.209 140.257C277.349 140.257 278.211 139.842 278.797 139.012C279.383 138.182 279.676 137.103 279.676 135.777V135.521C279.676 134.512 279.546 133.624 279.286 132.859C279.025 132.086 278.634 131.48 278.114 131.041C277.601 130.601 276.958 130.381 276.185 130.381C275.501 130.381 274.915 130.536 274.427 130.845C273.939 131.155 273.544 131.578 273.243 132.115V138.548C273.544 139.093 273.935 139.516 274.415 139.818C274.903 140.11 275.501 140.257 276.209 140.257ZM285.34 141.88V139.415H287.745V141.88H285.34Z" fill="white"/>
<path d="M287.042 162.041L282.335 175H280.412L285.832 160.781H287.072L287.042 162.041ZM290.988 175L286.271 162.041L286.242 160.781H287.482L292.921 175H290.988ZM290.744 169.736V171.279H282.755V169.736H290.744ZM301.72 169.014V170.479H296.134V169.014H301.72ZM296.515 164.434V175H294.708V164.434H296.515ZM303.185 164.434V175H301.369V164.434H303.185ZM307.999 164.434H309.806L309.65 168.389C309.611 169.391 309.497 170.257 309.308 170.986C309.119 171.715 308.878 172.337 308.585 172.852C308.292 173.359 307.964 173.786 307.599 174.131C307.241 174.476 306.87 174.766 306.486 175H305.587L305.636 173.525L306.007 173.516C306.222 173.262 306.43 173.001 306.632 172.734C306.834 172.461 307.02 172.139 307.189 171.768C307.358 171.39 307.498 170.931 307.609 170.391C307.726 169.844 307.801 169.176 307.833 168.389L307.999 164.434ZM308.449 164.434H314.806V175H312.999V166.104H308.449V164.434ZM305.177 173.516H316.164V178.115H314.357V175H306.984V178.115H305.167L305.177 173.516ZM319.972 166.465V179.062H318.156V164.434H319.816L319.972 166.465ZM327.091 169.629V169.834C327.091 170.602 327 171.315 326.818 171.973C326.636 172.624 326.369 173.19 326.017 173.672C325.672 174.154 325.246 174.528 324.738 174.795C324.23 175.062 323.647 175.195 322.99 175.195C322.319 175.195 321.727 175.085 321.212 174.863C320.698 174.642 320.262 174.32 319.904 173.896C319.546 173.473 319.259 172.965 319.044 172.373C318.836 171.781 318.693 171.113 318.615 170.371V169.277C318.693 168.496 318.839 167.796 319.054 167.178C319.269 166.559 319.552 166.032 319.904 165.596C320.262 165.153 320.695 164.818 321.203 164.59C321.71 164.355 322.296 164.238 322.96 164.238C323.624 164.238 324.214 164.368 324.728 164.629C325.242 164.883 325.675 165.247 326.027 165.723C326.378 166.198 326.642 166.768 326.818 167.432C327 168.089 327.091 168.822 327.091 169.629ZM325.275 169.834V169.629C325.275 169.102 325.22 168.607 325.109 168.145C324.998 167.676 324.826 167.266 324.591 166.914C324.363 166.556 324.07 166.276 323.712 166.074C323.354 165.866 322.928 165.762 322.433 165.762C321.977 165.762 321.58 165.84 321.242 165.996C320.91 166.152 320.626 166.364 320.392 166.631C320.158 166.891 319.966 167.191 319.816 167.529C319.673 167.861 319.565 168.206 319.494 168.564V171.094C319.624 171.549 319.806 171.979 320.04 172.383C320.275 172.78 320.587 173.102 320.978 173.35C321.369 173.59 321.86 173.711 322.453 173.711C322.941 173.711 323.361 173.61 323.712 173.408C324.07 173.2 324.363 172.917 324.591 172.559C324.826 172.201 324.998 171.79 325.109 171.328C325.22 170.859 325.275 170.361 325.275 169.834ZM333.781 175.195C333.045 175.195 332.378 175.072 331.779 174.824C331.186 174.57 330.675 174.215 330.246 173.76C329.822 173.304 329.497 172.764 329.269 172.139C329.041 171.514 328.927 170.83 328.927 170.088V169.678C328.927 168.818 329.054 168.053 329.308 167.383C329.562 166.706 329.907 166.133 330.343 165.664C330.779 165.195 331.274 164.84 331.828 164.6C332.381 164.359 332.954 164.238 333.546 164.238C334.302 164.238 334.953 164.368 335.499 164.629C336.053 164.889 336.505 165.254 336.857 165.723C337.208 166.185 337.469 166.732 337.638 167.363C337.807 167.988 337.892 168.672 337.892 169.414V170.225H330.001V168.75H336.085V168.613C336.059 168.145 335.962 167.689 335.792 167.246C335.63 166.803 335.369 166.439 335.011 166.152C334.653 165.866 334.165 165.723 333.546 165.723C333.136 165.723 332.759 165.811 332.414 165.986C332.068 166.156 331.772 166.41 331.525 166.748C331.277 167.087 331.085 167.5 330.949 167.988C330.812 168.477 330.744 169.04 330.744 169.678V170.088C330.744 170.589 330.812 171.061 330.949 171.504C331.092 171.94 331.297 172.324 331.564 172.656C331.837 172.988 332.166 173.249 332.55 173.438C332.941 173.626 333.384 173.721 333.878 173.721C334.516 173.721 335.057 173.59 335.499 173.33C335.942 173.07 336.33 172.721 336.662 172.285L337.755 173.154C337.527 173.499 337.238 173.828 336.886 174.141C336.535 174.453 336.102 174.707 335.587 174.902C335.08 175.098 334.477 175.195 333.781 175.195ZM341.955 172.139L346.828 164.434H348.644V175H346.828V167.295L341.955 175H340.158V164.434H341.955V172.139ZM345.841 160.605H347.306C347.306 161.113 347.189 161.566 346.955 161.963C346.72 162.354 346.385 162.66 345.949 162.881C345.513 163.102 344.995 163.213 344.396 163.213C343.491 163.213 342.775 162.972 342.248 162.49C341.727 162.002 341.466 161.374 341.466 160.605H342.931C342.931 160.99 343.042 161.328 343.263 161.621C343.485 161.914 343.862 162.061 344.396 162.061C344.917 162.061 345.288 161.914 345.509 161.621C345.731 161.328 345.841 160.99 345.841 160.605ZM361.642 160.781V175H359.787V160.781H361.642ZM366.212 160.781V162.324H355.226V160.781H366.212ZM373.165 173.193V167.754C373.165 167.337 373.081 166.976 372.912 166.67C372.749 166.357 372.501 166.117 372.169 165.947C371.837 165.778 371.427 165.693 370.939 165.693C370.483 165.693 370.083 165.771 369.738 165.928C369.399 166.084 369.132 166.289 368.937 166.543C368.748 166.797 368.654 167.07 368.654 167.363H366.847C366.847 166.986 366.945 166.611 367.14 166.24C367.335 165.869 367.615 165.534 367.98 165.234C368.351 164.928 368.794 164.688 369.308 164.512C369.829 164.329 370.408 164.238 371.046 164.238C371.815 164.238 372.492 164.368 373.078 164.629C373.67 164.889 374.132 165.283 374.464 165.811C374.803 166.331 374.972 166.986 374.972 167.773V172.695C374.972 173.047 375.001 173.421 375.06 173.818C375.125 174.215 375.22 174.557 375.343 174.844V175H373.458C373.367 174.792 373.296 174.515 373.244 174.17C373.192 173.818 373.165 173.493 373.165 173.193ZM373.478 168.594L373.498 169.863H371.671C371.157 169.863 370.698 169.906 370.294 169.99C369.891 170.068 369.552 170.189 369.279 170.352C369.005 170.514 368.797 170.719 368.654 170.967C368.511 171.208 368.439 171.491 368.439 171.816C368.439 172.148 368.514 172.451 368.664 172.725C368.813 172.998 369.038 173.216 369.337 173.379C369.643 173.535 370.018 173.613 370.46 173.613C371.014 173.613 371.502 173.496 371.925 173.262C372.348 173.027 372.684 172.741 372.931 172.402C373.185 172.064 373.322 171.735 373.341 171.416L374.113 172.285C374.067 172.559 373.943 172.861 373.742 173.193C373.54 173.525 373.27 173.844 372.931 174.15C372.599 174.45 372.202 174.701 371.74 174.902C371.284 175.098 370.77 175.195 370.197 175.195C369.481 175.195 368.852 175.055 368.312 174.775C367.778 174.495 367.361 174.121 367.062 173.652C366.769 173.177 366.623 172.646 366.623 172.061C366.623 171.494 366.733 170.996 366.955 170.566C367.176 170.13 367.495 169.769 367.912 169.482C368.328 169.189 368.83 168.968 369.415 168.818C370.001 168.669 370.656 168.594 371.378 168.594H373.478ZM379.621 166.465V179.062H377.804V164.434H379.464L379.621 166.465ZM386.74 169.629V169.834C386.74 170.602 386.649 171.315 386.466 171.973C386.284 172.624 386.017 173.19 385.665 173.672C385.32 174.154 384.894 174.528 384.386 174.795C383.878 175.062 383.296 175.195 382.638 175.195C381.968 175.195 381.375 175.085 380.861 174.863C380.346 174.642 379.91 174.32 379.552 173.896C379.194 173.473 378.908 172.965 378.693 172.373C378.485 171.781 378.341 171.113 378.263 170.371V169.277C378.341 168.496 378.488 167.796 378.703 167.178C378.917 166.559 379.201 166.032 379.552 165.596C379.91 165.153 380.343 164.818 380.851 164.59C381.359 164.355 381.945 164.238 382.609 164.238C383.273 164.238 383.862 164.368 384.376 164.629C384.891 164.883 385.324 165.247 385.675 165.723C386.027 166.198 386.29 166.768 386.466 167.432C386.649 168.089 386.74 168.822 386.74 169.629ZM384.923 169.834V169.629C384.923 169.102 384.868 168.607 384.757 168.145C384.647 167.676 384.474 167.266 384.24 166.914C384.012 166.556 383.719 166.276 383.361 166.074C383.003 165.866 382.576 165.762 382.082 165.762C381.626 165.762 381.229 165.84 380.89 165.996C380.558 166.152 380.275 166.364 380.04 166.631C379.806 166.891 379.614 167.191 379.464 167.529C379.321 167.861 379.214 168.206 379.142 168.564V171.094C379.272 171.549 379.455 171.979 379.689 172.383C379.923 172.78 380.236 173.102 380.626 173.35C381.017 173.59 381.509 173.711 382.101 173.711C382.589 173.711 383.009 173.61 383.361 173.408C383.719 173.2 384.012 172.917 384.24 172.559C384.474 172.201 384.647 171.79 384.757 171.328C384.868 170.859 384.923 170.361 384.923 169.834ZM391.007 164.434V175H389.201V164.434H391.007ZM397.941 164.434L392.931 170.488H390.402L390.128 168.906H392.199L395.744 164.434H397.941ZM395.998 175L392.111 170.215L393.273 168.906L398.292 175H395.998ZM399.171 169.834V169.609C399.171 168.848 399.282 168.141 399.503 167.49C399.725 166.833 400.044 166.263 400.46 165.781C400.877 165.293 401.382 164.915 401.974 164.648C402.567 164.375 403.231 164.238 403.966 164.238C404.708 164.238 405.376 164.375 405.968 164.648C406.567 164.915 407.075 165.293 407.492 165.781C407.915 166.263 408.237 166.833 408.458 167.49C408.68 168.141 408.79 168.848 408.79 169.609V169.834C408.79 170.596 408.68 171.302 408.458 171.953C408.237 172.604 407.915 173.174 407.492 173.662C407.075 174.144 406.57 174.521 405.978 174.795C405.392 175.062 404.728 175.195 403.986 175.195C403.244 175.195 402.576 175.062 401.984 174.795C401.391 174.521 400.884 174.144 400.46 173.662C400.044 173.174 399.725 172.604 399.503 171.953C399.282 171.302 399.171 170.596 399.171 169.834ZM400.978 169.609V169.834C400.978 170.361 401.04 170.859 401.164 171.328C401.287 171.79 401.473 172.201 401.72 172.559C401.974 172.917 402.29 173.2 402.667 173.408C403.045 173.61 403.485 173.711 403.986 173.711C404.481 173.711 404.914 173.61 405.285 173.408C405.662 173.2 405.975 172.917 406.222 172.559C406.47 172.201 406.655 171.79 406.779 171.328C406.909 170.859 406.974 170.361 406.974 169.834V169.609C406.974 169.089 406.909 168.597 406.779 168.135C406.655 167.666 406.466 167.253 406.212 166.895C405.965 166.53 405.652 166.243 405.275 166.035C404.904 165.827 404.468 165.723 403.966 165.723C403.471 165.723 403.035 165.827 402.658 166.035C402.287 166.243 401.974 166.53 401.72 166.895C401.473 167.253 401.287 167.666 401.164 168.135C401.04 168.597 400.978 169.089 400.978 169.609ZM416.017 170.352H412.55L412.531 168.906H415.363C415.923 168.906 416.388 168.851 416.759 168.74C417.137 168.63 417.42 168.464 417.609 168.242C417.798 168.021 417.892 167.747 417.892 167.422C417.892 167.168 417.837 166.947 417.726 166.758C417.622 166.562 417.462 166.403 417.248 166.279C417.033 166.149 416.766 166.055 416.447 165.996C416.134 165.931 415.766 165.898 415.343 165.898H413.029V175H411.222V164.434H415.343C416.014 164.434 416.616 164.492 417.15 164.609C417.69 164.727 418.149 164.906 418.527 165.146C418.911 165.381 419.204 165.68 419.406 166.045C419.608 166.41 419.708 166.839 419.708 167.334C419.708 167.653 419.643 167.956 419.513 168.242C419.383 168.529 419.191 168.783 418.937 169.004C418.683 169.225 418.371 169.408 417.999 169.551C417.628 169.688 417.202 169.775 416.72 169.814L416.017 170.352ZM416.017 175H411.896L412.794 173.535H416.017C416.518 173.535 416.935 173.473 417.267 173.35C417.599 173.219 417.846 173.037 418.009 172.803C418.179 172.562 418.263 172.275 418.263 171.943C418.263 171.611 418.179 171.328 418.009 171.094C417.846 170.853 417.599 170.671 417.267 170.547C416.935 170.417 416.518 170.352 416.017 170.352H413.273L413.292 168.906H416.72L417.374 169.453C417.954 169.499 418.445 169.642 418.849 169.883C419.253 170.124 419.559 170.43 419.767 170.801C419.975 171.165 420.08 171.562 420.08 171.992C420.08 172.487 419.985 172.923 419.796 173.301C419.614 173.678 419.347 173.994 418.996 174.248C418.644 174.495 418.218 174.684 417.716 174.814C417.215 174.938 416.649 175 416.017 175ZM426.73 173.711C427.16 173.711 427.557 173.623 427.921 173.447C428.286 173.271 428.585 173.031 428.82 172.725C429.054 172.412 429.188 172.057 429.22 171.66H430.939C430.906 172.285 430.695 172.868 430.304 173.408C429.92 173.942 429.415 174.375 428.79 174.707C428.165 175.033 427.479 175.195 426.73 175.195C425.936 175.195 425.242 175.055 424.65 174.775C424.064 174.495 423.576 174.111 423.185 173.623C422.801 173.135 422.511 172.575 422.316 171.943C422.127 171.305 422.033 170.632 422.033 169.922V169.512C422.033 168.802 422.127 168.132 422.316 167.5C422.511 166.862 422.801 166.299 423.185 165.811C423.576 165.322 424.064 164.938 424.65 164.658C425.242 164.378 425.936 164.238 426.73 164.238C427.557 164.238 428.279 164.408 428.898 164.746C429.516 165.078 430.001 165.534 430.353 166.113C430.711 166.686 430.906 167.337 430.939 168.066H429.22C429.188 167.63 429.064 167.236 428.849 166.885C428.641 166.533 428.354 166.253 427.99 166.045C427.632 165.83 427.212 165.723 426.73 165.723C426.177 165.723 425.711 165.833 425.333 166.055C424.962 166.27 424.666 166.562 424.445 166.934C424.23 167.298 424.074 167.705 423.976 168.154C423.885 168.597 423.839 169.049 423.839 169.512V169.922C423.839 170.384 423.885 170.84 423.976 171.289C424.067 171.738 424.22 172.145 424.435 172.51C424.656 172.874 424.953 173.167 425.324 173.389C425.701 173.604 426.17 173.711 426.73 173.711ZM434.933 164.434V175H433.126V164.434H434.933ZM441.867 164.434L436.857 170.488H434.328L434.054 168.906H436.124L439.669 164.434H441.867ZM439.923 175L436.037 170.215L437.199 168.906L442.218 175H439.923ZM445.744 172.139L450.617 164.434H452.433V175H450.617V167.295L445.744 175H443.947V164.434H445.744V172.139ZM457.287 172.139L462.16 164.434H463.976V175H462.16V167.295L457.287 175H455.49V164.434H457.287V172.139ZM461.173 160.605H462.638C462.638 161.113 462.521 161.566 462.287 161.963C462.052 162.354 461.717 162.66 461.281 162.881C460.845 163.102 460.327 163.213 459.728 163.213C458.823 163.213 458.107 162.972 457.58 162.49C457.059 162.002 456.798 161.374 456.798 160.605H458.263C458.263 160.99 458.374 161.328 458.595 161.621C458.817 161.914 459.194 162.061 459.728 162.061C460.249 162.061 460.62 161.914 460.841 161.621C461.063 161.328 461.173 160.99 461.173 160.605Z" fill="white"/>
</svg>
